<svg width="416" height="416" viewBox="0 0 416 416" fill="none" xmlns="http://www.w3.org/2000/svg">
<path d="M155.591 6.76351C44.4528 35.7093 -22.1822 149.271 6.76351 260.409C35.7093 371.547 149.271 438.182 260.409 409.236C371.547 380.291 438.182 266.729 409.236 155.591C380.291 44.4528 266.729 -22.1822 155.591 6.76351Z" fill="#303330"/>
<path d="M171.505 67.8698C94.1146 88.026 47.7135 167.104 67.8698 244.495C88.026 321.885 167.104 368.286 244.495 348.13C321.885 327.974 368.286 248.896 348.13 171.505C327.974 94.1146 248.896 47.7135 171.505 67.8698Z" fill="#EBBC2A"/>
<path d="M34.57 213.392C34.7106 213.642 35.0439 214.278 35.57 215.288C35.6533 215.471 35.7887 215.747 35.9658 216.122C36.1481 216.497 36.3148 216.799 36.4658 217.038L32.2783 217.309C30.7106 214.684 29.5908 213.101 28.9242 212.559L28.6533 208.122L55.9867 206.372L56.3408 211.997L34.57 213.392Z" fill="white"/>
<path d="M57.0977 185.814C56.8581 188.22 55.9779 189.996 54.4519 191.148C52.9258 192.288 50.9727 192.741 48.5977 192.502L36.2227 191.293C33.7227 191.059 31.8217 190.252 30.5144 188.877C29.2123 187.491 28.6758 185.559 28.9102 183.085C29.1498 180.627 30.0456 178.851 31.5977 177.752C33.1394 176.658 35.1602 176.226 37.6602 176.46L50.0352 177.668C52.3842 177.892 54.2123 178.72 55.5144 180.148C56.806 181.58 57.3321 183.47 57.0977 185.814ZM52.0769 185.335C52.1498 184.642 51.905 184.163 51.3477 183.898C50.78 183.621 50.1081 183.439 49.3269 183.356L37.2227 182.189C36.3373 182.106 35.5873 182.137 34.9727 182.273C34.3477 182.398 34.004 182.83 33.931 183.564C33.8633 184.314 34.1133 184.814 34.681 185.064C35.254 185.314 35.9883 185.491 36.8894 185.585L48.9935 186.752C50.9415 186.95 51.9675 186.476 52.0769 185.335Z" fill="white"/>
<path d="M61.9954 159.766C61.3391 162.089 60.162 163.673 58.4537 164.516C56.7454 165.365 54.7402 165.47 52.4329 164.829L40.4954 161.454C38.0683 160.777 36.3391 159.641 35.3079 158.058C34.2662 156.464 34.0787 154.47 34.7454 152.079C35.412 149.694 36.61 148.095 38.3287 147.287C40.037 146.485 42.11 146.423 44.537 147.1L56.4745 150.475C58.7558 151.115 60.3964 152.256 61.412 153.891C62.4381 155.532 62.6308 157.49 61.9954 159.766ZM57.1412 158.391C57.3391 157.725 57.1829 157.214 56.6829 156.85C56.1725 156.475 55.5318 156.183 54.7662 155.975L43.0787 152.683C42.2193 152.433 41.4745 152.324 40.8495 152.35C40.2245 152.381 39.8079 152.746 39.5995 153.454C39.4068 154.178 39.5683 154.714 40.0787 155.058C40.5943 155.407 41.287 155.704 42.162 155.954L53.8495 159.246C55.7402 159.777 56.8391 159.49 57.1412 158.391Z" fill="white"/>
<path d="M59.445 130.815C58.3513 132.815 57.0492 133.976 55.5492 134.294C54.0492 134.601 52.195 134.159 49.9867 132.961L48.9242 132.377C46.7054 131.169 45.3408 129.888 44.8408 128.523C44.3304 127.148 44.6325 125.43 45.7575 123.357C46.8825 121.305 48.1533 120.107 49.57 119.773C50.9867 119.44 52.7992 119.877 55.0075 121.086L56.195 121.732C58.3773 122.914 59.7367 124.221 60.2783 125.648C60.82 127.081 60.544 128.805 59.445 130.815ZM51.4033 113.065L52.8617 110.398L72.9033 130.877L71.4242 133.586L51.4033 113.065ZM56.3617 129.127C56.6273 128.627 56.695 128.19 56.57 127.815C56.4346 127.44 56.1481 127.101 55.7158 126.794C55.2731 126.476 54.6221 126.081 53.7575 125.607L53.0075 125.211C52.1221 124.726 51.445 124.393 50.9867 124.211C50.5283 124.034 50.1325 123.997 49.7992 124.107C49.4554 124.221 49.1429 124.534 48.8617 125.044C48.5856 125.56 48.4971 125.997 48.5908 126.357C48.6742 126.706 48.919 127.023 49.32 127.315C49.7106 127.596 50.3356 127.971 51.195 128.44L52.0075 128.877C53.2731 129.575 54.2263 129.961 54.8617 130.044C55.4867 130.127 55.9867 129.825 56.3617 129.127ZM78.5492 120.586C77.4658 122.586 76.1638 123.742 74.6533 124.044C73.1533 124.336 71.2992 123.877 69.0908 122.669L68.0283 122.107C65.82 120.898 64.4606 119.617 63.945 118.252C63.4346 116.877 63.7315 115.169 64.8408 113.127C65.9658 111.075 67.2367 109.877 68.6533 109.544C70.0804 109.211 71.9033 109.643 74.1117 110.836L75.2575 111.461C77.4346 112.659 78.8044 113.976 79.3617 115.419C79.9294 116.851 79.6585 118.575 78.5492 120.586ZM75.445 118.898C75.721 118.398 75.7888 117.961 75.6533 117.586C75.5283 117.211 75.2471 116.867 74.82 116.544C74.3877 116.226 73.7419 115.836 72.8825 115.377L72.0908 114.94C71.2002 114.456 70.5283 114.127 70.07 113.961C69.6221 113.794 69.2263 113.768 68.8825 113.877C68.5492 113.992 68.2367 114.305 67.945 114.815C67.6638 115.331 67.5752 115.763 67.6742 116.107C67.7679 116.456 68.0127 116.784 68.4033 117.086C68.8044 117.377 69.445 117.763 70.32 118.232L71.1117 118.669C72.3877 119.351 73.3304 119.732 73.945 119.815C74.57 119.898 75.07 119.596 75.445 118.898Z" fill="white"/>
<path d="M85.0566 70.3491L90.1816 65.745L112.265 82.7658L108.098 86.495L103.577 82.7866L100.577 85.4741L103.723 90.4116L99.4524 94.2241L85.0566 70.3491ZM100.723 80.4741L92.4941 73.4741L98.5566 82.4325L100.723 80.4741Z" fill="white"/>
<path d="M127.917 72.5817C126.178 73.6546 124.626 74.2224 123.251 74.2901C121.886 74.3474 120.657 73.9515 119.563 73.1026C118.48 72.2432 117.412 70.9515 116.355 69.2276L106.501 53.1026L111.605 49.9776L121.938 66.8734C122.522 67.8317 123.105 68.5192 123.688 68.9359C124.272 69.3421 124.923 69.3213 125.647 68.8734C126.381 68.4307 126.693 67.863 126.584 67.1651C126.469 66.4724 126.126 65.6442 125.542 64.6859L115.209 47.7901L120.355 44.6442L130.209 60.7692C131.261 62.4932 131.917 64.0349 132.167 65.3942C132.417 66.7588 132.209 68.0296 131.542 69.2067C130.876 70.389 129.667 71.514 127.917 72.5817Z" fill="white"/>
<path d="M139.362 40.6534L135.529 42.1743L133.862 37.9868L147.154 32.7159L148.82 36.9034L145.008 38.4243L153.445 59.6951L147.8 61.9243L139.362 40.6534Z" fill="white"/>
<path d="M161.57 28.392L173.591 25.6837L174.487 29.7045L168.383 31.0795L169.883 37.7045L174.529 36.642L175.445 40.7253L170.799 41.7878L172.612 49.7878L178.779 48.392L179.674 52.392L167.591 55.1212L161.57 28.392Z" fill="white"/>
<path d="M189.042 23.4887L193.313 23.2595L199.626 36.1137L198.917 22.947L203.917 22.697L205.376 50.0512L201.271 50.2595L194.938 36.3845L195.688 50.572L190.501 50.8429L189.042 23.4887Z" fill="white"/>
<path d="M225.226 51.8696C222.278 51.4946 220.278 50.453 219.226 48.7446C218.185 47.0363 217.851 44.7134 218.226 41.7655L219.476 31.9738C219.851 28.9738 220.747 26.7967 222.164 25.4321C223.591 24.0571 225.794 23.5571 228.768 23.9321C231.612 24.2967 233.544 25.2342 234.56 26.7446C235.57 28.2602 235.919 30.2759 235.601 32.7863L235.31 35.1196L229.414 34.3696L229.768 31.6613C229.893 30.6092 229.877 29.7863 229.726 29.203C229.586 28.6092 229.086 28.255 228.226 28.1405C227.377 28.0311 226.789 28.255 226.455 28.8071C226.122 29.3644 225.883 30.1769 225.747 31.2446L224.122 44.0155C223.981 45.0884 224.018 45.9269 224.226 46.5363C224.435 47.1352 224.945 47.4894 225.768 47.5988C226.601 47.6977 227.164 47.4842 227.455 46.953C227.758 46.4113 227.981 45.6092 228.122 44.5363L228.476 41.6821L234.372 42.4321L234.08 44.7863C233.758 47.328 232.914 49.2342 231.539 50.4946C230.174 51.7707 228.07 52.229 225.226 51.8696Z" fill="white"/>
<path d="M252.093 28.8885L257.926 30.576L250.363 56.9093L244.53 55.2218L252.093 28.8885Z" fill="white"/>
<path d="M269.141 64.5957C266.443 63.3457 264.854 61.752 264.37 59.8249C263.896 57.8822 264.286 55.5697 265.536 52.8874L269.682 43.9291C270.943 41.1791 272.458 39.3614 274.224 38.4707C276 37.5853 278.25 37.7728 280.974 39.0332C283.568 40.2312 285.125 41.7103 285.641 43.4707C286.151 45.2207 285.875 47.2416 284.807 49.5332L283.828 51.6791L278.453 49.1791L279.599 46.6999C280.042 45.7416 280.276 44.9603 280.307 44.3457C280.333 43.7364 279.958 43.252 279.182 42.8874C278.401 42.528 277.766 42.5645 277.266 42.9916C276.776 43.4239 276.313 44.127 275.87 45.0957L270.453 56.7832C269.995 57.7728 269.771 58.5853 269.786 59.2207C269.813 59.8614 270.203 60.3509 270.953 60.6999C271.714 61.0437 272.318 61.002 272.766 60.5749C273.224 60.1582 273.682 59.4603 274.141 58.4707L275.349 55.8666L280.724 58.3666L279.724 60.5124C278.651 62.8457 277.271 64.4082 275.578 65.1999C273.88 65.9916 271.734 65.7885 269.141 64.5957Z" fill="white"/>
<path d="M301.696 50.8318L306.758 54.186L291.591 76.9985L286.529 73.6443L301.696 50.8318Z" fill="white"/>
<path d="M320.137 64.2013L325.262 68.8888C327.012 70.4878 328.179 71.9513 328.762 73.2846C329.345 74.618 329.418 75.9305 328.991 77.2221C328.559 78.5138 327.627 79.9305 326.199 81.4721L319.47 88.8055C318.054 90.3575 316.705 91.4148 315.429 91.9721C314.163 92.5398 312.835 92.6023 311.449 92.1596C310.074 91.7273 308.522 90.7117 306.804 89.118L301.616 84.3888L320.137 64.2013ZM309.637 86.0346C310.272 86.6284 310.835 86.9721 311.324 87.0555C311.809 87.1492 312.252 87.0555 312.658 86.7638C313.074 86.4721 313.6 85.9773 314.241 85.2846L322.304 76.493C322.897 75.8575 323.309 75.3211 323.533 74.8888C323.752 74.4617 323.788 74.0294 323.637 73.5971C323.481 73.1544 323.08 72.6336 322.429 72.0346L321.762 71.4096L308.929 85.3888L309.637 86.0346Z" fill="white"/>
<path d="M345.524 90.5843L349.67 96.0843L330.899 116.668L327.524 112.23L331.607 107.98L329.17 104.772L323.982 107.543L320.524 102.959L345.524 90.5843ZM334.128 105.376L341.795 97.751L332.378 103.043L334.128 105.376Z" fill="white"/>
<path d="M361.028 113.58L364.132 119.768C365.2 121.893 365.768 123.679 365.841 125.122C365.924 126.58 365.528 127.83 364.653 128.872C363.789 129.924 362.424 130.924 360.549 131.872L351.653 136.351C349.763 137.294 348.132 137.799 346.757 137.872C345.382 137.955 344.122 137.544 342.987 136.643C341.846 135.736 340.747 134.236 339.695 132.143L336.549 125.872L361.028 113.58ZM343.445 130.268C343.83 131.044 344.237 131.559 344.653 131.809C345.08 132.07 345.534 132.143 346.007 132.018C346.492 131.893 347.159 131.622 348.007 131.205L358.674 125.83C359.45 125.44 360.018 125.085 360.382 124.768C360.742 124.445 360.929 124.054 360.945 123.58C360.955 123.111 360.768 122.486 360.382 121.705L359.966 120.893L343.007 129.414L343.445 130.268Z" fill="white"/>
<path d="M90.7247 331.414C90.4435 331.373 89.756 331.185 88.6622 330.852C88.4643 330.8 88.1674 330.717 87.7664 330.602C87.3758 330.477 87.0424 330.388 86.7664 330.331L89.4122 327.081C92.381 327.696 94.3081 327.951 95.1831 327.852L98.6206 330.644L81.3706 351.894L76.9956 348.331L90.7247 331.414Z" fill="white"/>
<path d="M101.779 366.461C99.6961 365.222 98.4669 363.659 98.0919 361.774C97.7274 359.899 98.1649 357.941 99.4044 355.899L105.759 345.253C107.035 343.118 108.576 341.753 110.384 341.17C112.186 340.586 114.154 340.93 116.279 342.191C118.404 343.456 119.623 345.024 119.946 346.899C120.279 348.764 119.805 350.764 118.529 352.899L112.175 363.545C110.951 365.571 109.415 366.862 107.571 367.42C105.738 367.987 103.805 367.67 101.779 366.461ZM104.342 362.149C104.936 362.493 105.477 362.467 105.967 362.066C106.451 361.675 106.894 361.149 107.3 360.482L113.529 350.045C113.988 349.284 114.285 348.602 114.425 348.003C114.576 347.394 114.332 346.894 113.696 346.503C113.055 346.128 112.498 346.144 112.029 346.545C111.571 346.951 111.102 347.54 110.634 348.316L104.404 358.753C103.389 360.435 103.368 361.566 104.342 362.149Z" fill="white"/>
<path d="M130.075 380.471C127.825 379.564 126.372 378.226 125.721 376.45C125.065 374.658 125.185 372.653 126.075 370.429L130.68 358.929C131.607 356.611 132.919 355.023 134.617 354.158C136.31 353.299 138.305 353.325 140.596 354.242C142.888 355.158 144.336 356.512 144.95 358.304C145.575 360.096 145.419 362.153 144.492 364.471L139.888 375.971C139.013 378.163 137.706 379.679 135.971 380.512C134.232 381.356 132.268 381.346 130.075 380.471ZM131.95 375.825C132.586 376.09 133.117 375.986 133.534 375.512C133.95 375.044 134.305 374.445 134.596 373.721L139.117 362.45C139.45 361.606 139.638 360.867 139.68 360.242C139.732 359.617 139.414 359.169 138.721 358.887C138.039 358.611 137.497 358.715 137.096 359.2C136.706 359.674 136.336 360.34 135.992 361.2L131.471 372.471C130.747 374.294 130.909 375.408 131.95 375.825Z" fill="white"/>
<path d="M161.712 377.79C159.462 377.374 157.951 376.509 157.191 375.186C156.425 373.853 156.274 371.957 156.732 369.499L156.962 368.29C157.404 365.822 158.196 364.134 159.337 363.228C160.488 362.311 162.217 362.072 164.524 362.499C166.816 362.915 168.342 363.749 169.107 364.999C169.868 366.249 170.024 368.103 169.566 370.561L169.316 371.895C168.868 374.327 168.05 376.02 166.857 376.978C165.675 377.936 163.962 378.207 161.712 377.79ZM176.024 364.645L179.024 365.186L165.837 390.582L162.816 390.04L176.024 364.645ZM162.337 374.353C162.878 374.452 163.305 374.384 163.628 374.145C163.946 373.895 164.191 373.52 164.357 373.02C164.524 372.509 164.696 371.764 164.878 370.79L165.024 369.957C165.201 368.957 165.3 368.217 165.316 367.728C165.342 367.243 165.253 366.853 165.045 366.561C164.837 366.27 164.446 366.077 163.878 365.978C163.279 365.868 162.837 365.91 162.545 366.103C162.253 366.301 162.024 366.634 161.857 367.103C161.701 367.561 161.535 368.285 161.357 369.27L161.212 370.145C160.946 371.577 160.868 372.603 160.982 373.228C161.107 373.842 161.555 374.217 162.337 374.353ZM177.357 392.749C175.118 392.342 173.618 391.478 172.857 390.145C172.107 388.811 171.962 386.915 172.42 384.457L172.628 383.27C173.087 380.785 173.883 379.082 175.024 378.165C176.175 377.249 177.889 376.999 180.17 377.415C182.488 377.848 184.024 378.686 184.774 379.936C185.524 381.186 185.67 383.04 185.212 385.499L184.982 386.811C184.524 389.238 183.701 390.941 182.524 391.915C181.342 392.884 179.618 393.165 177.357 392.749ZM177.982 389.29C178.535 389.4 178.972 389.332 179.295 389.082C179.613 388.842 179.857 388.478 180.024 387.978C180.191 387.467 180.357 386.728 180.524 385.77L180.691 384.874C180.883 383.874 180.988 383.139 181.003 382.665C181.014 382.197 180.92 381.811 180.712 381.52C180.503 381.228 180.107 381.03 179.524 380.915C178.951 380.822 178.514 380.868 178.212 381.061C177.92 381.259 177.696 381.592 177.545 382.061C177.389 382.52 177.222 383.238 177.045 384.207L176.878 385.103C176.613 386.52 176.535 387.535 176.649 388.145C176.758 388.77 177.201 389.15 177.982 389.29Z" fill="white"/>
<path d="M228.878 393.344C226.18 393.678 224.16 393.105 222.816 391.615C221.467 390.131 220.607 387.881 220.232 384.865L219.107 375.761C218.722 372.693 219.055 370.277 220.107 368.511C221.16 366.751 223.16 365.678 226.107 365.303C228.951 364.959 231.071 365.402 232.462 366.636C233.847 367.876 234.701 369.756 235.024 372.282L235.232 374.032L229.378 374.761L229.107 372.532C228.982 371.464 228.758 370.672 228.441 370.157C228.133 369.646 227.55 369.443 226.691 369.553C225.826 369.667 225.3 370.042 225.107 370.678C224.925 371.303 224.899 372.152 225.024 373.219L226.587 385.803C226.722 386.876 226.993 387.693 227.399 388.261C227.8 388.834 228.425 389.063 229.274 388.949C230.842 388.756 231.482 387.49 231.191 385.157L230.795 381.969L228.337 382.282L227.899 378.761L235.753 377.782L237.503 391.865L233.545 392.365L232.941 390.157C232.285 392.021 230.93 393.084 228.878 393.344Z" fill="white"/>
<path d="M249.959 361.048L256.564 359.111L269.168 383.944L263.793 385.528L261.314 380.236L257.459 381.361L258.168 387.173L252.689 388.757L249.959 361.048ZM259.751 376.903L255.355 367.09L256.98 377.715L259.751 376.903Z" fill="white"/>
<path d="M272.092 353.579L278.904 350.329C281.613 349.037 283.884 348.547 285.717 348.849C287.55 349.141 289.04 350.506 290.196 352.933C290.988 354.589 291.404 356.006 291.446 357.183C291.488 358.349 291.061 359.485 290.175 360.579L299.279 370.912L293.654 373.599L285.634 363.849L284.092 364.579L289.384 375.641L283.904 378.266L272.092 353.579ZM284.113 360.724C285.196 360.198 285.821 359.547 285.988 358.766C286.154 357.974 285.957 356.995 285.404 355.829C284.863 354.719 284.248 353.985 283.571 353.62C282.904 353.261 282.082 353.318 281.092 353.787L279.321 354.62L282.592 361.433L284.113 360.724Z" fill="white"/>
<path d="M300.794 337.944L306.461 334.007L326.294 353.528L321.711 356.736L317.69 352.507L314.377 354.819L316.898 360.09L312.211 363.361L300.794 337.944ZM315.127 349.861L307.815 341.944L312.752 351.528L315.127 349.861Z" fill="white"/>
<path d="M319.414 323.761L322.476 320.781L335.664 326.406L326.518 316.906L330.122 313.427L349.122 333.136L346.185 335.969L332.268 329.677L342.122 339.886L338.414 343.469L319.414 323.761Z" fill="white"/>
<path d="M343.661 304.547L341.141 307.817L337.578 305.067L346.286 293.734L349.849 296.484L347.349 299.713L365.495 313.63L361.807 318.463L343.661 304.547Z" fill="white"/>
<path d="M352.473 284.057L355.514 278.828L379.139 292.64L376.098 297.869L352.473 284.057Z" fill="white"/>
<path d="M363.061 263.734L365.728 257.359L392.957 263.172L390.811 268.318L385.124 266.943L383.582 270.651L388.54 273.755L386.353 279.026L363.061 263.734ZM381.561 266.089L371.165 263.318L380.457 268.755L381.561 266.089Z" fill="white"/>
<path d="M109.406 172.646L149.677 162.146L153.323 176.084L133.656 181.209L139.76 204.688L156.885 200.23L160.635 214.605L143.51 219.063L154.302 260.521L133.698 265.896L109.406 172.646Z" fill="black"/>
<path d="M159.368 159.634L183.639 153.301C189.707 151.717 195.035 151.009 199.618 151.176C204.212 151.332 208.285 152.874 211.826 155.801C215.378 158.733 218.003 163.457 219.701 169.967C221.144 175.509 221.076 180.124 219.493 183.801C217.92 187.483 215.056 190.316 210.889 192.301C216.441 191.608 221.139 192.811 224.972 195.905C228.816 199.004 231.602 203.853 233.326 210.447C238.118 228.863 231.108 240.52 212.306 245.405L183.66 252.884L159.368 159.634ZM193.722 190.53C198.097 189.395 200.806 187.624 201.847 185.217C202.899 182.801 202.878 179.483 201.785 175.259C200.826 171.582 199.102 169.061 196.618 167.697C194.128 166.337 190.972 166.15 187.139 167.134L183.576 168.072L189.701 191.572L193.722 190.53ZM204.889 231.967C209.248 230.832 212.045 228.941 213.285 226.301C214.535 223.65 214.545 219.978 213.326 215.28C211.951 209.988 210.076 206.504 207.701 204.822C205.326 203.145 201.915 202.884 197.472 204.051L193.222 205.155L200.514 233.113L204.889 231.967Z" fill="black"/>
<path d="M276.434 230.192C267.543 232.515 260.314 231.874 254.746 228.275C249.189 224.682 244.913 217.786 241.913 207.588L258.83 200.338C260.455 206.228 262.272 210.291 264.288 212.525C266.298 214.749 268.652 215.504 271.35 214.796C274.809 213.895 275.944 211.181 274.767 206.65C273.819 203.041 272.184 200.145 269.85 197.963C267.517 195.786 264.194 193.661 259.892 191.588L249.996 186.65C245.132 184.317 241.116 181.541 237.934 178.317C234.757 175.098 232.491 170.874 231.142 165.65C229.1 157.817 229.85 151.187 233.392 145.754C236.923 140.327 242.757 136.546 250.892 134.421C259.71 132.129 266.382 133.145 270.913 137.463C275.439 141.786 278.772 147.588 280.913 154.879L263.788 161.692C262.371 156.9 261.017 153.546 259.725 151.629C258.444 149.702 256.58 149.056 254.121 149.692C252.371 150.15 251.205 151.254 250.621 153.004C250.048 154.754 250.007 156.556 250.496 158.4C251.314 161.541 252.71 164.004 254.684 165.796C256.668 167.577 259.6 169.431 263.475 171.359L272.934 176.15C278.559 178.859 283.205 182.077 286.871 185.796C290.548 189.504 293.173 194.353 294.746 200.338C295.882 204.713 295.897 208.952 294.788 213.046C293.689 217.145 291.564 220.713 288.413 223.754C285.272 226.796 281.277 228.942 276.434 230.192Z" fill="black"/>
<path d="M152.053 292.046C150.746 292.395 149.709 292.27 148.949 291.671C148.183 291.077 147.621 290.077 147.261 288.671L145.928 283.609C145.569 282.208 145.584 281.083 145.97 280.234C146.345 279.374 147.189 278.77 148.491 278.421C149.793 278.088 150.824 278.208 151.574 278.775C152.324 279.348 152.876 280.327 153.241 281.713L154.574 286.796C154.933 288.171 154.928 289.312 154.553 290.213C154.178 291.103 153.345 291.713 152.053 292.046ZM151.657 290.567C152.35 290.39 152.767 290.067 152.907 289.609C153.043 289.14 153.011 288.484 152.803 287.65L151.282 281.796C151.058 280.978 150.772 280.411 150.428 280.088C150.095 279.755 149.579 279.682 148.886 279.859C148.189 280.041 147.767 280.359 147.616 280.817C147.48 281.265 147.522 281.895 147.741 282.713L149.261 288.567C149.47 289.4 149.746 289.994 150.095 290.338C150.439 290.671 150.959 290.749 151.657 290.567Z" fill="black"/>
<path d="M167.216 273.665L169.903 272.957C171.263 272.613 172.33 272.634 173.112 273.019C173.888 273.41 174.435 274.238 174.758 275.499C175.2 277.207 174.914 278.389 173.903 279.04L177.549 285.249L175.758 285.728L172.383 279.915L170.924 280.29L172.549 286.561L170.695 287.04L167.216 273.665ZM171.278 278.749C172.08 278.54 172.617 278.238 172.883 277.832C173.159 277.431 173.185 276.811 172.966 275.978C172.825 275.426 172.653 275.009 172.445 274.728C172.237 274.436 171.955 274.259 171.612 274.186C171.278 274.118 170.825 274.155 170.258 274.29L169.424 274.519L170.57 278.936L171.278 278.749Z" fill="black"/>
<path d="M189.09 267.974L190.903 267.495L194.382 280.87L192.569 281.349L189.09 267.974Z" fill="black"/>
<path d="M212.994 276.198C211.786 276.521 210.807 276.365 210.057 275.74C209.317 275.104 208.755 274.031 208.369 272.531L207.203 268.052C206.942 267.026 206.828 266.151 206.869 265.427C206.911 264.708 207.15 264.104 207.578 263.615C207.994 263.115 208.661 262.75 209.578 262.511C210.812 262.193 211.786 262.276 212.494 262.761C213.203 263.25 213.729 264.156 214.078 265.49L214.203 266.011L212.453 266.469L212.348 266.031C212.182 265.406 212.015 264.927 211.848 264.594C211.692 264.25 211.473 264.026 211.182 263.927C210.89 263.818 210.499 263.823 210.015 263.948C209.484 264.089 209.124 264.313 208.932 264.615C208.734 264.906 208.661 265.261 208.703 265.677C208.729 266.094 208.833 266.636 209.015 267.302L210.307 272.261C210.567 273.276 210.88 273.969 211.244 274.344C211.604 274.719 212.13 274.818 212.828 274.636C213.52 274.458 213.932 274.094 214.057 273.552C214.192 273 214.124 272.193 213.848 271.136L213.619 270.198L211.932 270.636L211.578 269.344L214.953 268.448L216.682 275.052L215.515 275.365L214.932 273.865C214.791 275.115 214.145 275.896 212.994 276.198Z" fill="black"/>
<path d="M228.424 257.73L230.237 257.251L233.716 270.626L231.903 271.105L228.424 257.73Z" fill="black"/>
<path d="M245.62 253.245L246.891 252.912L252.995 260.808L250.682 251.933L252.245 251.516L255.724 264.891L254.537 265.204L248.307 257.079L250.682 266.204L249.099 266.62L245.62 253.245Z" fill="black"/>
<path d="M269.643 246.995L271.455 246.516L277.789 259.141L276.018 259.599L274.518 256.391L271.81 257.099L272.039 260.641L270.289 261.099L269.643 246.995ZM273.935 255.141L271.247 249.391L271.705 255.724L273.935 255.141Z" fill="black"/>
<path d="M288.864 241.983L290.718 241.504L293.843 253.545L297.28 252.649L297.634 253.983L292.343 255.358L288.864 241.983Z" fill="black"/>
</svg>
